<svg xmlns="http://www.w3.org/2000/svg" xmlns:xlink="http://www.w3.org/1999/xlink" id="Layer_1" x="0" y="0" version="1.1" viewBox="0 0 512 512" xml:space="preserve" style="enable-background:new 0 0 512 512"><path style="fill:transparent" d="M418.487,337.656c-12.606,0-24.542,2.861-35.202,7.961L165.557,127.889	c5.101-10.659,7.961-22.597,7.961-35.201c0-45.097-36.559-81.656-81.656-81.656S10.206,47.591,10.206,92.689	s36.559,81.656,81.656,81.656c12.606,0,24.542-2.861,35.202-7.961l217.728,217.728c-5.101,10.659-7.961,22.596-7.961,35.201	c0,45.097,36.559,81.656,81.656,81.656s81.656-36.559,81.656-81.656S463.585,337.656,418.487,337.656z M91.862,119.906	c-15.033,0-27.219-12.186-27.219-27.219s12.186-27.219,27.219-27.219s27.219,12.186,27.219,27.219S106.895,119.906,91.862,119.906z M418.487,446.531c-15.033,0-27.219-12.186-27.219-27.219c0-15.033,12.186-27.219,27.219-27.219	c15.033,0,27.219,12.186,27.219,27.219C445.706,434.346,433.52,446.531,418.487,446.531z"/><path style="fill:transparent" d="M418.487,337.656c-12.606,0-24.542,2.861-35.202,7.961L255.175,217.506v76.988l89.618,89.618	c-5.101,10.659-7.961,22.596-7.961,35.201c0,45.097,36.559,81.656,81.656,81.656s81.656-36.559,81.656-81.656	S463.585,337.656,418.487,337.656z M418.487,446.531c-15.033,0-27.219-12.186-27.219-27.219c0-15.033,12.186-27.219,27.219-27.219	c15.033,0,27.219,12.186,27.219,27.219C445.706,434.346,433.52,446.531,418.487,446.531z"/><path style="fill:transparent" d="M492.182,57.485l-54.448,54.448l-38.493-38.493l54.448-54.448	c-10.66-5.101-22.596-7.961-35.202-7.961c-45.097,0-81.656,36.559-81.656,81.656c0,12.605,2.861,24.542,7.963,35.201l-217.83,217.83	c-11.048-5.58-23.525-8.743-36.748-8.743c-45.096,0-81.656,36.558-81.656,81.655c0,12.606,2.862,24.542,7.963,35.202l54.448-54.448	l38.493,38.493l-54.448,54.448c10.66,5.101,22.597,7.963,35.202,7.963c45.097-0.001,81.656-36.559,81.656-81.658	c0-11.982-2.602-23.347-7.237-33.599L383.288,166.38c10.66,5.101,22.596,7.963,35.201,7.963	c45.097,0.001,81.656-36.558,81.658-81.655C500.145,80.082,497.283,68.146,492.182,57.485z"/><path style="fill:transparent" d="M492.182,57.485l-54.448,54.448l-38.493-38.493l54.448-54.448	c-10.66-5.101-22.596-7.961-35.202-7.961c-45.097,0-81.656,36.559-81.656,81.656c0,12.605,2.861,24.542,7.963,35.201l-89.619,89.619	v76.986L383.288,166.38c10.66,5.101,22.596,7.963,35.201,7.963c45.097,0.001,81.656-36.558,81.658-81.655	C500.145,80.082,497.283,68.146,492.182,57.485z"/><g><path style="fill:#000" d="M93.509,55.262c-20.637,0-37.426,16.79-37.426,37.426s16.789,37.426,37.426,37.426 c20.636,0,37.426-16.79,37.426-37.426S114.145,55.262,93.509,55.262z M93.509,109.699c-9.381,0-17.012-7.631-17.012-17.012 s7.631-17.012,17.012-17.012c9.38,0,17.012,7.631,17.012,17.012S102.888,109.699,93.509,109.699z"/><path style="fill:#000" d="M420.134,327.449c-11.384,0-22.412,2.035-32.875,6.059L309.75,256l77.512-77.511 c10.464,4.024,21.492,6.06,32.873,6.06c0.001,0,0.001,0,0.003,0c24.535,0,47.604-9.555,64.953-26.906 c17.351-17.351,26.907-40.419,26.907-64.956c0-13.854-3.016-27.181-8.962-39.609c-1.429-2.987-4.22-5.095-7.484-5.655 c-3.262-0.559-6.598,0.502-8.94,2.843l-47.231,47.231L415.323,73.44l47.231-47.23c2.342-2.344,3.402-5.675,2.843-8.94 c-0.559-3.265-2.667-6.055-5.655-7.485c-12.427-5.946-25.752-8.96-39.607-8.96c-50.654,0-91.863,41.209-91.863,91.863 c0,11.383,2.036,22.411,6.06,32.875l-77.51,77.51l-77.51-77.51c4.026-10.464,6.06-21.491,6.06-32.875 c0-50.654-41.209-91.863-91.863-91.863S1.647,42.033,1.647,92.687s41.209,91.863,91.863,91.863c11.384,0,22.412-2.035,32.875-6.059 l77.508,77.511l-77.497,77.496c-10.957-4.469-22.54-6.73-34.532-6.73C41.211,326.769,0,367.978,0,418.631 c0,13.854,3.016,27.181,8.962,39.609c1.429,2.987,4.22,5.095,7.485,5.655c3.265,0.559,6.598-0.501,8.94-2.843l47.231-47.231 l24.059,24.059l-47.231,47.23c-2.342,2.344-3.402,5.676-2.843,8.94c0.559,3.264,2.667,6.055,5.655,7.485 c12.428,5.946,25.754,8.962,39.609,8.962c50.654-0.001,91.863-41.212,91.863-91.865c0-10.73-1.829-21.18-5.445-31.163l78.54-78.54 l77.51,77.51c-4.024,10.464-6.06,21.491-6.06,32.875c0,50.654,41.209,91.863,91.863,91.863S512,469.967,512,419.313 S470.788,327.449,420.134,327.449z M135.928,159.165c-3.061-3.059-7.719-3.854-11.624-1.99c-9.653,4.62-20.014,6.961-30.795,6.961 c-39.398,0-71.449-32.053-71.449-71.449s32.051-71.449,71.449-71.449s71.449,32.053,71.449,71.449 c0,10.781-2.342,21.142-6.961,30.795c-1.869,3.905-1.071,8.563,1.99,11.624l82.399,82.402l-24.057,24.057L135.928,159.165z M156.982,389.24c4.2,9.288,6.331,19.178,6.331,29.392c0,39.396-32.051,71.449-71.449,71.451c-5.66,0-11.206-0.646-16.594-1.928 l43.057-43.057c3.986-3.988,3.986-10.449,0-14.435l-38.493-38.493c-3.986-3.983-10.449-3.983-14.434,0l-43.057,43.059 c-1.283-5.389-1.93-10.935-1.93-16.597c0-39.396,32.053-71.448,71.449-71.448c11.284,0,22.099,2.574,32.147,7.646 c3.937,1.988,8.702,1.222,11.818-1.893l217.83-217.829c3.061-3.061,3.858-7.719,1.99-11.624c-4.62-9.654-6.963-20.015-6.963-30.795 c0-39.396,32.053-71.449,71.449-71.449c5.66,0,11.206,0.646,16.593,1.927l-43.057,43.057c-3.986,3.988-3.986,10.449,0,14.435 l38.493,38.493c3.986,3.985,10.449,3.985,14.435,0l43.057-43.059c1.282,5.388,1.928,10.934,1.928,16.594 c0,19.084-7.432,37.027-20.927,50.522c-13.495,13.495-31.438,20.926-50.522,20.926c-10.779,0-21.139-2.344-30.794-6.963 c-3.905-1.866-8.563-1.071-11.624,1.99L159.064,377.815C156.06,380.818,155.231,385.368,156.982,389.24z M420.134,490.762 c-39.398,0-71.449-32.053-71.449-71.449c0-10.781,2.342-21.142,6.961-30.795c1.869-3.905,1.071-8.563-1.99-11.624l-82.399-82.401 l24.057-24.057l82.401,82.399c3.062,3.061,7.722,3.857,11.622,1.99c9.653-4.62,20.014-6.961,30.797-6.961 c39.398,0,71.449,32.053,71.449,71.449C491.583,458.71,459.532,490.762,420.134,490.762z"/><path style="fill:#000" d="M420.134,381.887c-20.637,0-37.426,16.79-37.426,37.426c0,20.636,16.789,37.426,37.426,37.426 c20.637,0,37.426-16.79,37.426-37.426S440.771,381.887,420.134,381.887z M420.134,436.324c-9.381,0-17.012-7.631-17.012-17.012 c0-9.381,7.631-17.012,17.012-17.012c9.38,0,17.012,7.631,17.012,17.012C437.146,428.694,429.514,436.324,420.134,436.324z"/></g></svg>